#!OML:ASF F:\VICON\USERDATA\INSTALL\rory3\rory3.ASF
:FULLY-SPECIFIED
:DEGREES
480
root 6.90531 17.2569 2.7562 8.44346 37.078 5.93138
lowerback 8.48365 3.02324 -4.68874
upperback 2.1814 3.63402 0.100035
thorax -2.78087 1.84109 2.33412
lowerneck 7.44476 -16.5867 -22.7613
upperneck -7.97813 -23.6023 30.6857
head 3.30087 -12.4473 11.9572
rclavicle 3.17062e-014 -1.19271e-014
rhumerus -20.9555 -6.07944 -57.9498
rradius 80.3438
rwrist -17.8999
rhand -17.0328 22.3365
rfingers 7.12502
rthumb 9.20369 -7.44266
lclavicle 3.17062e-014 -1.19271e-014
lhumerus -56.442 39.3557 7.6623
lradius 42.7592
lwrist 13.2636
lhand -12.7191 42.9577
lfingers 7.12502
lthumb 13.3639 72.5091
rfemur -36.8387 -3.22806 11.2399
rtibia 28.055
rfoot -6.74032 -8.74755
rtoes 18.5089
lfemur -8.03646 -11.5905 -26.1454
ltibia 33.9082
lfoot -24.0327 -18.6276
ltoes 21.8644
481
root 6.96447 17.2461 2.61375 9.59029 36.0484 5.667
lowerback 7.87236 3.36698 -3.31639
upperback 1.80387 4.20906 -0.334383
thorax -2.74905 2.12064 1.0788
lowerneck 8.15226 -16.4739 -22.8677
upperneck -8.75414 -23.4467 31.1613
head 3.01964 -12.4628 12.2682
rclavicle 5.15846e-014 -1.19271e-014
rhumerus -21.8737 -5.83097 -58.7229
rradius 80.274
rwrist -16.8306
rhand -16.6537 22.2866
rfingers 7.12502
rthumb 9.56947 -7.47605
lclavicle 5.15846e-014 -1.19271e-014
lhumerus -57.968 39.0012 8.42791
lradius 42.0871
lwrist 13.6258
lhand -13.3774 42.3942
lfingers 7.12502
lthumb 12.7294 71.9862
rfemur -38.8597 -5.00479 11.978
rtibia 27.6841
rfoot -6.28742 -7.71802
rtoes 16.231
lfemur -10.1779 -12.6999 -26.2874
ltibia 34.3518
lfoot -22.8692 -17.8481
ltoes 27.4207
482
root 6.91219 17.3096 2.76612 8.83292 38.5576 6.58856
lowerback 8.137 2.88694 -5.60093
upperback 2.5632 3.4135 0.0923563
thorax -2.2247 1.71783 2.88907
lowerneck 8.4749 -16.5526 -22.7042
upperneck -9.24232 -23.5017 31.2199
head 2.83318 -12.5342 12.3038
rclavicle 1.24638e-013 -1.03368e-014
rhumerus -22.7985 -5.71174 -59.5606
rradius 80.1191
rwrist -15.8287
rhand -16.0546 22.676
rfingers 7.12502
rthumb 10.1475 -7.05931
lclavicle 1.24638e-013 -1.03368e-014
lhumerus -59.7159 39.0387 8.84905
lradius 41.2921
lwrist 13.4011
lhand -12.9159 42.4447
lfingers 7.12502
lthumb 13.1742 72.0085
rfemur -35.6296 -2.74474 10.0285
rtibia 27.6136
rfoot -10.1199 -12.8811
rtoes 16.7391
lfemur -8.15968 -12.9143 -26.0721
ltibia 34.2555
lfoot -21.8942 -21.71
ltoes 33.1154
483
root 6.92262 17.308 2.74934 9.37453 38.906 7.06932
lowerback 7.87283 2.85453 -5.98717
upperback 2.63136 3.35813 -0.0582759
thorax -2.01395 1.68451 2.96904
lowerneck 8.47272 -16.6789 -22.5843
upperneck -9.36893 -23.6403 31.1532
head 2.80792 -12.6061 12.2366
rclavicle 2.05742e-014 9.54166e-015
rhumerus -23.7554 -5.63488 -60.5448
rradius 79.8957
rwrist -14.8091
rhand -15.1798 23.2843
rfingers 7.12502
rthumb 10.9913 -6.408
lclavicle 2.05742e-014 9.54166e-015
lhumerus -61.2477 38.8226 9.63086
lradius 40.6175
lwrist 14.3047
lhand -13.044 42.7657
lfingers 7.12502
lthumb 13.0508 72.3374
rfemur -35.7715 -2.95555 9.48263
rtibia 27.7378
rfoot -10.7025 -14.0677
rtoes 15.3003
lfemur -8.36684 -12.4123 -26.4404
ltibia 34.0598
lfoot -22.7904 -21.1915
ltoes 28.3869
484
root 6.93618 17.2999 2.71524 10.0142 39.1105 7.56371
lowerback 7.7218 2.96248 -6.15574
upperback 2.5296 3.48971 -0.317404
thorax -2.04214 1.75301 2.78467
lowerneck 8.9455 -16.7587 -22.528
upperneck -9.58708 -23.7878 31.3017
head 2.72514 -12.7287 12.3076
rclavicle 3.11098e-014 -5.96354e-015
rhumerus -24.9894 -5.81905 -61.4021
rradius 79.4551
rwrist -13.4441
rhand -14.4508 23.7916
rfingers 7.12502
rthumb 11.6944 -5.86196
lclavicle 3.11098e-014 -5.96354e-015
lhumerus -62.0389 38.2361 11.0819
lradius 39.9407
lwrist 15.9361
lhand -13.4827 42.6966
lfingers 7.12502
lthumb 12.6279 72.2949
rfemur -36.3293 -3.52603 9.01878
rtibia 28.2956
rfoot -10.9586 -14.4592
rtoes 14.8187
lfemur -8.4757 -11.7725 -26.8748
ltibia 33.3941
lfoot -23.5365 -20.3256
ltoes 22.3432
485
root 6.95063 17.3206 2.6848 10.3688 39.4342 7.74761
lowerback 7.61925 3.03214 -6.1347
upperback 2.43847 3.58437 -0.458729
thorax -2.07887 1.80286 2.61891
lowerneck 9.43778 -16.8305 -22.4547
upperneck -9.84019 -23.9152 31.3358
head 2.60204 -12.8391 12.3474
rclavicle -1.32192e-013 3.93594e-014
rhumerus -26.137 -6.03383 -62.2473
rradius 78.7106
rwrist -11.8388
rhand -13.8811 24.3867
rfingers 7.12502
rthumb 12.2437 -5.23486
lclavicle -1.32192e-013 3.93594e-014
lhumerus -63.1597 37.9512 11.9853
lradius 39.0363
lwrist 15.9631
lhand -12.8125 42.3341
lfingers 7.12502
lthumb 13.2739 71.8914
rfemur -36.4696 -4.02059 8.8235
rtibia 28.4906
rfoot -11.1775 -14.7524
rtoes 16.2311
lfemur -8.55754 -12.7124 -26.7313
ltibia 33.396
lfoot -21.9062 -21.9062
ltoes 30.7219
486
root 6.95512 17.3114 2.67403 10.6345 39.8252 7.95333
lowerback 7.57487 3.0142 -6.30254
upperback 2.43308 3.54899 -0.599949
thorax -2.05714 1.78544 2.57198
lowerneck 9.79501 -16.8252 -22.2331
upperneck -10.1713 -23.8736 31.4239
head 2.42544 -12.8647 12.412
rclavicle 1.54058e-014 -1.86858e-014
rhumerus -27.1078 -6.27768 -63.3485
rradius 77.8537
rwrist -10.2861
rhand -13.3339 25.0172
rfingers 7.12502
rthumb 12.7714 -4.57217
lclavicle 1.54058e-014 -1.86858e-014
lhumerus -64.8938 38.1749 11.9139
lradius 37.9183
lwrist 13.9759
lhand -10.7564 41.8258
lfingers 7.12502
lthumb 15.2551 71.2433
rfemur -36.5176 -4.3509 8.66165
rtibia 28.7859
rfoot -11.4345 -15.146
rtoes 17.5773
lfemur -9.05382 -10.5503 -26.9527
ltibia 33.1947
lfoot -23.756 -21.3213
ltoes 18.3566
487
root 6.96142 17.3189 2.65431 11.0273 39.9249 8.33376
lowerback 7.60247 3.09293 -6.59651
upperback 2.3562 3.62064 -0.878862
thorax -2.15797 1.82621 2.43509
lowerneck 10.2919 -16.7901 -21.8823
upperneck -10.4982 -23.7894 31.5754
head 2.20923 -12.8868 12.5091
rclavicle 1.59028e-014 6.36111e-015
rhumerus -28.075 -6.63269 -64.5134
rradius 76.845
rwrist -8.86651
rhand -12.8791 25.5634
rfingers 7.12502
rthumb 13.2098 -3.99806
lclavicle 1.59028e-014 6.36111e-015
lhumerus -66.6791 38.8076 11.7617
lradius 37.0582
lwrist 12.9211
lhand -10.4696 40.964
lfingers 7.12502
lthumb 15.5314 70.3603
rfemur -36.6528 -4.88498 8.50559
rtibia 28.991
rfoot -11.3025 -15.1073
rtoes 17.6586
lfemur -9.38104 -9.75647 -27.212
ltibia 33.1046
lfoot -23.8144 -21.8118
ltoes 16.2123
488
root 6.9614 17.3495 2.71631 10.6402 41.6709 8.88359
lowerback 8.03943 2.7019 -7.39603
upperback 2.66631 3.02595 -0.77617
thorax -2.06462 1.52399 3.03908
lowerneck 10.7236 -16.7404 -21.8807
upperneck -10.5934 -23.7714 31.7937
head 2.14299 -12.925 12.6435
rclavicle 4.40308e-014 -1.66979e-014
rhumerus -28.8698 -6.7482 -65.5273
rradius 75.6413
rwrist -7.63639
rhand -12.6273 26.0122
rfingers 7.12502
rthumb 13.4524 -3.5334
lclavicle 4.40308e-014 -1.66979e-014
lhumerus -69.1303 40.0006 10.8918
lradius 36.1548
lwrist 11.2627
lhand -10.0642 40.3066
lfingers 7.12502
lthumb 15.9219 69.6721
rfemur -34.9118 -4.78287 7.87592
rtibia 29.2995
rfoot -12.9969 -16.5624
rtoes 18.1821
lfemur -8.1693 -9.4761 -26.9548
ltibia 32.7939
lfoot -23.1138 -24.6492
ltoes 19.4163
489
root 6.98369 17.3385 2.67663 11.1949 41.9312 9.21508
lowerback 7.91609 2.6967 -7.18639
upperback 2.58615 3.0374 -1.03314
thorax -2.05756 1.53191 2.65774
lowerneck 10.9962 -16.8114 -22.0539
upperneck -10.6885 -23.9306 32.1736
head 2.20263 -13.0427 12.795
rclavicle -6.37105e-014 2.0276e-014
rhumerus -29.65 -7.06018 -66.4458
rradius 74.3786
rwrist -6.69913
rhand -12.2263 26.5187
rfingers 7.12502
rthumb 13.839 -3.00095
lclavicle -6.37105e-014 2.0276e-014
lhumerus -70.6141 40.5477 11.1474
lradius 35.2124
lwrist 10.9986
lhand -10.063 39.941
lfingers 7.12502
lthumb 15.923 69.3064
rfemur -35.38 -5.69774 7.67498
rtibia 29.4791
rfoot -12.9316 -16.3497
rtoes 17.2235
lfemur -8.48111 -9.48299 -27.2448
ltibia 32.5213
lfoot -22.663 -25.1702
ltoes 19.6668
490
root 7.0039 17.3179 2.61787 11.6685 41.7762 9.29175
lowerback 7.94892 2.8855 -6.64474
upperback 2.39474 3.30906 -1.38359
thorax -2.25367 1.67601 1.9574
lowerneck 11.2576 -16.9432 -22.0602
upperneck -10.8921 -24.1247 32.4934
head 2.21207 -13.181 12.8989
rclavicle -3.66758e-014 1.03368e-014
rhumerus -30.6015 -7.6319 -67.3184
rradius 73.0445
rwrist -6.04691
rhand -11.9043 27.0257
rfingers 7.12502
rthumb 14.1492 -2.47247
lclavicle -3.66758e-014 1.03368e-014
lhumerus -71.1323 40.4517 12.3589
lradius 34.2594
lwrist 11.6763
lhand -10.1208 39.6838
lfingers 7.12502
lthumb 15.8674 69.0537
rfemur -36.2044 -5.99841 7.49608
rtibia 29.6127
rfoot -12.9145 -16.3051
rtoes 16.3585
lfemur -8.88882 -9.4241 -27.4487
ltibia 32.1223
lfoot -21.96 -25.438
ltoes 20.6257
491
root 7.01275 17.3243 2.62687 11.5796 42.7977 9.35206
lowerback 8.14522 2.75217 -6.56237
upperback 2.46987 3.1277 -1.40379
thorax -2.26364 1.58551 1.90382
lowerneck 11.4975 -16.9757 -22.0389
upperneck -11.0831 -24.1693 32.698
head 2.16469 -13.2386 12.9925
rclavicle -3.03147e-014 1.27222e-014
rhumerus -31.459 -8.13507 -68.1041
rradius 71.5845
rwrist -5.33793
rhand -12.117 27.1117
rfingers 7.12502
rthumb 13.9443 -2.40074
lclavicle -3.03147e-014 1.27222e-014
lhumerus -71.3998 40.1828 14.0811
lradius 33.416
lwrist 13.1904
lhand -10.8968 39.6649
lfingers 7.12502
lthumb 15.1199 69.0926
rfemur -35.5647 -5.30581 6.9829
rtibia 29.5789
rfoot -14.2278 -17.8063
rtoes 15.8929
lfemur -8.55345 -9.15113 -27.1447
ltibia 31.8604
lfoot -21.7536 -26.7509
ltoes 20.7426
492
root 7.02199 17.3355 2.63663 11.3198 43.4715 9.12615
lowerback 8.18666 2.76186 -6.40401
upperback 2.61918 3.16037 -1.34905
thorax -2.12893 1.59606 1.87152
lowerneck 11.5535 -17.1526 -21.8668
upperneck -11.2571 -24.3639 32.679
head 2.13319 -13.3476 12.9313
rclavicle 2.08724e-014 -3.18055e-015
rhumerus -32.0193 -8.85136 -68.7694
rradius 69.8958
rwrist -4.44819
rhand -12.2915 26.8346
rfingers 7.12502
rthumb 13.7761 -2.68927
lclavicle 2.08724e-014 -3.18055e-015
lhumerus -71.405 40.1031 16.1455
lradius 32.6111
lwrist 15.0611
lhand -11.7006 40.1838
lfingers 7.12502
lthumb 14.3455 69.6682
rfemur -35.0223 -4.76214 6.89133
rtibia 29.4187
rfoot -15.1369 -18.9764
rtoes 14.4605
lfemur -8.26901 -8.95124 -26.7309
ltibia 31.6618
lfoot -21.9423 -27.46
ltoes 19.7943
